Coordinates
version=1
nRows=40
nColumns=38
inDegrees=no

Units are S.I. units (second, meters, Newtons, ...)
If the header above contains a line with 'inDegrees', this indicates whether rotational values are in degrees (yes) or radians (no).

endheader
time	pelvis_tilt	pelvis_list	pelvis_rotation	pelvis_tx	pelvis_ty	pelvis_tz	hip_flexion_r	hip_adduction_r	hip_rotation_r	knee_angle_r	ankle_angle_r	subtalar_angle_r	mtp_angle_r	hip_flexion_l	hip_adduction_l	hip_rotation_l	knee_angle_l	ankle_angle_l	subtalar_angle_l	mtp_angle_l	lumbar_extension	lumbar_bending	lumbar_rotation	arm_flex_r	arm_add_r	arm_rot_r	elbow_flex_r	pro_sup_r	wrist_flex_r	wrist_dev_r	arm_flex_l	arm_add_l	arm_rot_l	elbow_flex_l	pro_sup_l	wrist_flex_l	wrist_dev_l
1.27	0.000217068	1.27454	-1.50677	1.06801	0.11595	0.952387	-0.132573	-0.118976	-0.142546	1.2308	-0.544032	0	0	-0.226889	0.0308084	-0.253076	0.194668	-0.245211	0	0	-0.387993	0.033436	-0.0896215	-0.321834	-0.224839	-0.353051	0.85031	0.438182	0	0	-0.147955	-0.375504	0.25736	0.708784	1.37292	0	0
1.28	-0.0184482	1.27578	-1.48551	1.06901	0.106631	0.953527	-0.102165	-0.117546	-0.14265	1.25214	-0.514088	0	0	-0.23957	0.0250798	-0.253726	0.189723	-0.240346	0	0	-0.385509	0.0423166	-0.0909413	-0.323647	-0.22686	-0.354258	0.851114	0.438568	0	0	-0.130718	-0.375719	0.270792	0.702254	1.36786	0	0
1.29	-0.0379262	1.27615	-1.46338	1.07005	0.0974629	0.954579	-0.0729034	-0.11577	-0.143299	1.26763	-0.494682	0	0	-0.252935	0.0193644	-0.254599	0.184688	-0.235409	0	0	-0.384098	0.0515814	-0.0916495	-0.325983	-0.228887	-0.355714	0.853221	0.438657	0	0	-0.113239	-0.376502	0.285586	0.697179	1.36514	0	0
1.3	-0.0575749	1.27543	-1.43931	1.07111	0.0884799	0.955573	-0.0459948	-0.113256	-0.145706	1.27596	-0.481841	0	0	-0.266633	0.012548	-0.253364	0.180099	-0.231416	0	0	-0.383972	0.0608431	-0.0937467	-0.327386	-0.230991	-0.355473	0.854135	0.439532	0	0	-0.0968781	-0.37865	0.299587	0.694778	1.36902	0	0
1.31	-0.0767611	1.27448	-1.41472	1.07212	0.0795512	0.95644	-0.0206796	-0.110272	-0.148788	1.27781	-0.469365	0	0	-0.279684	0.00495173	-0.25062	0.176218	-0.227516	0	0	-0.383688	0.0700504	-0.095955	-0.328457	-0.23271	-0.355067	0.854251	0.440203	0	0	-0.0799455	-0.380966	0.313257	0.69273	1.37506	0	0
1.32	-0.0971107	1.27499	-1.39108	1.07295	0.0703248	0.957114	0.00493423	-0.106246	-0.149649	1.27407	-0.453347	0	0	-0.291678	-0.00264501	-0.250628	0.170835	-0.223631	0	0	-0.38085	0.0789525	-0.0954392	-0.330331	-0.234473	-0.355135	0.853838	0.440686	0	0	-0.0617049	-0.380998	0.32564	0.688371	1.37948	0	0
1.33	-0.116902	1.27481	-1.36777	1.07373	0.0611515	0.957679	0.0283207	-0.101464	-0.150686	1.2652	-0.435786	0	0	-0.303792	-0.0105881	-0.250768	0.165852	-0.220304	0	0	-0.378622	0.0878683	-0.0949392	-0.331971	-0.235709	-0.356067	0.853929	0.440692	0	0	-0.0432232	-0.379944	0.335253	0.684687	1.38077	0	0
1.34	-0.134059	1.27312	-1.34625	1.07451	0.0521278	0.958158	0.0487229	-0.0969289	-0.153181	1.25225	-0.418608	0	0	-0.316995	-0.0184086	-0.250332	0.161743	-0.217062	0	0	-0.378468	0.0961439	-0.0953771	-0.333159	-0.236903	-0.356139	0.854552	0.441705	0	0	-0.0255357	-0.379774	0.343737	0.683644	1.3825	0	0
1.35	-0.148218	1.27204	-1.32794	1.0753	0.0432457	0.958451	0.0686406	-0.093431	-0.156186	1.23579	-0.398211	0	0	-0.330041	-0.0249232	-0.249535	0.156823	-0.213093	0	0	-0.378189	0.103868	-0.0955957	-0.334336	-0.238062	-0.356638	0.856294	0.442968	0	0	-0.0064714	-0.377975	0.350466	0.681532	1.38073	0	0
1.36	-0.160985	1.27192	-1.31197	1.07596	0.03443	0.958532	0.0884796	-0.0902203	-0.158643	1.21567	-0.379584	0	0	-0.342206	-0.0302785	-0.249611	0.152264	-0.208953	0	0	-0.377287	0.110841	-0.0955257	-0.334713	-0.238974	-0.357594	0.858155	0.444273	0	0	0.0126337	-0.374442	0.353262	0.679833	1.3729	0	0
1.37	-0.172093	1.27201	-1.29851	1.07647	0.0257055	0.958455	0.107358	-0.0867513	-0.1596	1.19184	-0.36157	0	0	-0.3549	-0.034605	-0.249289	0.14655	-0.204827	0	0	-0.376506	0.116235	-0.0950897	-0.333452	-0.239472	-0.358381	0.858547	0.445576	0	0	0.0301635	-0.372325	0.356443	0.680555	1.36722	0	0
1.38	-0.181788	1.27288	-1.28727	1.0768	0.0170376	0.958126	0.125972	-0.0830161	-0.158165	1.16439	-0.345303	0	0	-0.366874	-0.0380416	-0.248904	0.141229	-0.200484	0	0	-0.375511	0.120138	-0.0947222	-0.330988	-0.23981	-0.358509	0.8585	0.44691	0	0	0.0457284	-0.371918	0.359585	0.684387	1.36451	0	0
1.39	-0.191597	1.27421	-1.2761	1.07699	0.00839909	0.957642	0.142703	-0.0777183	-0.153977	1.1317	-0.327318	0	0	-0.378105	-0.0413807	-0.248767	0.135622	-0.194881	0	0	-0.374185	0.123258	-0.094321	-0.327369	-0.239826	-0.358336	0.857146	0.448316	0	0	0.0608654	-0.372039	0.362107	0.689229	1.36395	0	0
1.4	-0.200088	1.27618	-1.26617	1.07711	-0.00021561	0.957051	0.157477	-0.0716539	-0.147322	1.0939	-0.31011	0	0	-0.388752	-0.0445068	-0.249157	0.12978	-0.18903	0	0	-0.372491	0.125649	-0.0944782	-0.322679	-0.239669	-0.357811	0.854892	0.449829	0	0	0.0758087	-0.371263	0.36201	0.694096	1.36447	0	0
1.41	-0.207741	1.27839	-1.25687	1.07717	-0.008836	0.956384	0.169663	-0.0650036	-0.138779	1.05012	-0.297192	0	0	-0.398877	-0.0476256	-0.249666	0.124449	-0.184494	0	0	-0.370768	0.127915	-0.0954653	-0.317295	-0.239463	-0.356787	0.852631	0.45102	0	0	0.0904184	-0.369484	0.360221	0.697944	1.36529	0	0
1.42	-0.213802	1.2805	-1.24913	1.07717	-0.0174846	0.95567	0.178825	-0.0585958	-0.129266	1.0006	-0.287256	0	0	-0.408586	-0.0505124	-0.250752	0.120043	-0.180483	0	0	-0.369311	0.12973	-0.0964713	-0.311654	-0.239064	-0.355721	0.850136	0.451645	0	0	0.105183	-0.367063	0.35802	0.700855	1.36629	0	0
1.43	-0.218116	1.28265	-1.24346	1.0771	-0.0262129	0.954857	0.185509	-0.0532408	-0.120308	0.947839	-0.278947	0	0	-0.418318	-0.052874	-0.25215	0.115966	-0.176502	0	0	-0.368137	0.130716	-0.0969462	-0.306113	-0.238631	-0.354412	0.847415	0.451687	0	0	0.119795	-0.364208	0.354919	0.704204	1.36848	0	0
1.44	-0.221356	1.28564	-1.23923	1.077	-0.0350338	0.95385	0.191032	-0.0493675	-0.112969	0.893045	-0.271852	0	0	-0.426769	-0.0545579	-0.253832	0.113569	-0.171853	0	0	-0.366392	0.130992	-0.0972905	-0.300868	-0.238641	-0.352172	0.844983	0.45189	0	0	0.133632	-0.361072	0.351527	0.707855	1.37297	0	0
1.45	-0.222437	1.28964	-1.23712	1.07693	-0.0439031	0.952638	0.195871	-0.047702	-0.108739	0.836957	-0.264551	0	0	-0.433963	-0.0551848	-0.254837	0.112326	-0.166427	0	0	-0.363997	0.130393	-0.0977298	-0.295806	-0.238904	-0.349434	0.842547	0.452275	0	0	0.146944	-0.357505	0.347897	0.711528	1.38017	0	0
1.46	-0.221611	1.29478	-1.237	1.07684	-0.0528829	0.951207	0.200077	-0.0479002	-0.107978	0.779354	-0.255875	0	0	-0.439938	-0.0548631	-0.255245	0.11188	-0.160309	0	0	-0.360649	0.129022	-0.098303	-0.291275	-0.239198	-0.346941	0.840558	0.452289	0	0	0.159863	-0.353437	0.343654	0.715032	1.3869	0	0
1.47	-0.218531	1.30127	-1.23948	1.07674	-0.0620002	0.94951	0.203874	-0.0498266	-0.110383	0.72013	-0.24526	0	0	-0.444828	-0.0531755	-0.254721	0.111546	-0.153351	0	0	-0.355964	0.126586	-0.0986227	-0.28748	-0.239522	-0.34481	0.839015	0.45156	0	0	0.172188	-0.349064	0.339742	0.718462	1.3945	0	0
1.48	-0.21372	1.3085	-1.24379	1.0766	-0.0712924	0.947613	0.206616	-0.0527268	-0.115313	0.65908	-0.233994	0	0	-0.449186	-0.0508729	-0.253799	0.11152	-0.146213	0	0	-0.350541	0.123379	-0.0986788	-0.28473	-0.239905	-0.342679	0.838263	0.450286	0	0	0.183956	-0.344854	0.336933	0.722218	1.40221	0	0
1.49	-0.207669	1.31553	-1.24924	1.07638	-0.0807815	0.945636	0.207147	-0.0557251	-0.122409	0.595115	-0.224396	0	0	-0.454009	-0.0485839	-0.252926	0.111635	-0.138902	0	0	-0.345173	0.11984	-0.0985052	-0.283052	-0.240207	-0.340528	0.838388	0.448229	0	0	0.195057	-0.340666	0.334483	0.726355	1.40954	0	0
1.5	-0.200858	1.32228	-1.25564	1.07607	-0.0904209	0.943611	0.205421	-0.0581373	-0.130617	0.527731	-0.218204	0	0	-0.459019	-0.0463638	-0.252632	0.112675	-0.131414	0	0	-0.340004	0.116221	-0.0979019	-0.282194	-0.240462	-0.338489	0.839363	0.445234	0	0	0.205519	-0.336497	0.332367	0.730648	1.41716	0	0
1.51	-0.192489	1.32798	-1.26379	1.07566	-0.1002	0.941643	0.199986	-0.0594224	-0.139263	0.456057	-0.217497	0	0	-0.465695	-0.04414	-0.252254	0.112779	-0.124188	0	0	-0.335741	0.112549	-0.0969636	-0.28162	-0.241057	-0.335795	0.840313	0.441297	0	0	0.215253	-0.331923	0.329373	0.734639	1.42599	0	0
1.52	-0.183177	1.33422	-1.27318	1.07515	-0.110113	0.939591	0.193638	-0.0601754	-0.147001	0.383485	-0.219461	0	0	-0.471686	-0.0417394	-0.251708	0.113264	-0.118178	0	0	-0.330964	0.108497	-0.0959531	-0.281279	-0.241667	-0.332924	0.841276	0.437336	0	0	0.223877	-0.327174	0.325634	0.738719	1.43383	0	0
1.53	-0.174192	1.34063	-1.28244	1.07445	-0.120207	0.937461	0.187103	-0.0608235	-0.15403	0.314016	-0.22333	0	0	-0.47678	-0.0398971	-0.251464	0.115447	-0.112303	0	0	-0.325774	0.104331	-0.0946822	-0.281513	-0.242101	-0.329879	0.842309	0.433628	0	0	0.23127	-0.322632	0.321412	0.743323	1.44116	0	0
1.54	-0.164083	1.34786	-1.29312	1.0733	-0.13058	0.93509	0.184301	-0.0664189	-0.162182	0.261092	-0.223872	0	0	-0.480527	-0.0386662	-0.251496	0.119354	-0.106152	0	0	-0.319248	0.0990889	-0.0931667	-0.282743	-0.241512	-0.326969	0.843694	0.430221	0	0	0.236902	-0.319552	0.31757	0.749564	1.44607	0	0
1.55	-0.159435	1.35275	-1.29726	1.0725	-0.140798	0.933192	0.176771	-0.0619078	-0.16118	0.204033	-0.22651	0	0	-0.484965	-0.0395028	-0.250545	0.124842	-0.100713	0	0	-0.315372	0.096709	-0.0926922	-0.282121	-0.242052	-0.323131	0.843514	0.426974	0	0	0.242695	-0.315425	0.31325	0.754353	1.45038	0	0
1.56	-0.153829	1.35568	-1.30147	1.07167	-0.151034	0.931444	0.170476	-0.0584696	-0.164638	0.164129	-0.229173	0	0	-0.490523	-0.0414589	-0.249607	0.131879	-0.0962668	0	0	-0.313678	0.0949783	-0.0925804	-0.282111	-0.242211	-0.320183	0.84465	0.424101	0	0	0.247996	-0.31183	0.31003	0.75991	1.45506	0	0
1.57	-0.263593	1.37626	-1.19158	1.07269	-0.162203	0.924668	0.200396	-0.04342	-0.167933	0.158949	-0.220228	0	0	-0.383941	-0.162818	-0.543016	0.434009	-0.01372	0	0	-0.28328	0.116185	-0.0850098	-0.306514	-0.250887	-0.325867	0.875221	0.410463	0	0	0.246402	-0.300514	0.307417	0.772126	1.45911	0	0
1.58	-0.258316	1.38206	-1.19747	1.0718	-0.172543	0.922692	0.210016	-0.0467949	-0.156262	0.179821	-0.219003	0	0	-0.386559	-0.163299	-0.543561	0.441667	-0.0114771	0	0	-0.278466	0.113317	-0.0834529	-0.307362	-0.250679	-0.325069	0.876944	0.407635	0	0	0.249651	-0.29734	0.306435	0.77744	1.46067	0	0
1.59	-0.265288	1.37847	-1.18987	1.07095	-0.182807	0.92199	0.220888	-0.0413091	-0.189427	0.216325	-0.199507	0	0	-0.397611	-0.170444	-0.545916	0.448613	-0.0132046	0	0	-0.283406	0.116903	-0.0823987	-0.306074	-0.251171	-0.323649	0.878534	0.401771	0	0	0.252434	-0.293199	0.302097	0.78306	1.46495	0	0
1.6	-0.268506	1.3771	-1.18571	1.07016	-0.193315	0.921105	0.236181	-0.0408754	-0.202085	0.277527	-0.180205	0	0	-0.406151	-0.176013	-0.546991	0.45627	-0.0182683	0	0	-0.286197	0.119272	-0.0825006	-0.306733	-0.251987	-0.321311	0.882093	0.396829	0	0	0.252424	-0.28964	0.296292	0.790546	1.46959	0	0
1.61	-0.27421	1.37608	-1.17716	1.06944	-0.204366	0.920304	0.249989	-0.0403328	-0.212277	0.341364	-0.165049	0	0	-0.413877	-0.182857	-0.547065	0.464328	-0.0256992	0	0	-0.286736	0.122206	-0.0852328	-0.30776	-0.252583	-0.318016	0.883929	0.393954	0	0	0.249757	-0.286744	0.290561	0.797746	1.47368	0	0
1.62	-0.281835	1.37487	-1.16478	1.06884	-0.215936	0.919635	0.258384	-0.0384935	-0.219972	0.395459	-0.155014	0	0	-0.421373	-0.191049	-0.546083	0.472651	-0.0348568	0	0	-0.285673	0.125924	-0.0904318	-0.309089	-0.252876	-0.31413	0.884034	0.393934	0	0	0.244696	-0.284611	0.28587	0.804616	1.4765	0	0
1.63	-0.290691	1.37267	-1.15056	1.06828	-0.227748	0.919185	0.260171	-0.0340359	-0.22485	0.434477	-0.144727	0	0	-0.429265	-0.200136	-0.544809	0.48154	-0.0457635	0	0	-0.28491	0.130626	-0.0964756	-0.310277	-0.252617	-0.311568	0.883675	0.394015	0	0	0.238169	-0.283024	0.282005	0.811447	1.47833	0	0
1.64	-0.301405	1.36972	-1.13461	1.06774	-0.239636	0.919005	0.257047	-0.0273374	-0.227159	0.457204	-0.138862	0	0	-0.436799	-0.209917	-0.543757	0.491659	-0.0583494	0	0	-0.284661	0.136264	-0.102304	-0.311318	-0.252214	-0.309959	0.883037	0.393835	0	0	0.230933	-0.281357	0.278726	0.817445	1.4794	0	0
1.65	-0.313453	1.3666	-1.11725	1.06722	-0.251621	0.919071	0.250668	-0.02017	-0.226532	0.46543	-0.144899	0	0	-0.442801	-0.22034	-0.542545	0.503957	-0.0734825	0	0	-0.284501	0.142549	-0.108245	-0.312489	-0.251824	-0.308732	0.882281	0.393641	0	0	0.22268	-0.279919	0.275942	0.82302	1.48163	0	0
1.66	-0.32593	1.36328	-1.09867	1.06677	-0.263851	0.919352	0.239733	-0.0128557	-0.225392	0.460861	-0.165992	0	0	-0.447026	-0.231928	-0.541072	0.519006	-0.0940541	0	0	-0.284055	0.149464	-0.115507	-0.314122	-0.251466	-0.307544	0.881686	0.393512	0	0	0.212321	-0.279095	0.272797	0.829082	1.48559	0	0
